# xmcd CD database file
#
# Track frame offsets:
#	150
#	14136
#	26341
#	38629
#	51716
#	64708
#	77295
#	90639
#	102528
#	114604
#	128175
#	140824
#	153738
#	165765
#	179120
#	192697
#	206625
#	218861
#	232628
#	245528
#	257804
#	271862
#	285034
#	298075
#	311031
#
# Disc length: 4333 seconds
#
# Revision: 3
# Processed by: cddbd v1.5.1PL2 Copyright (c) Steve Scherf et al.
# Submitted via: CDex 1.70beta1
#
DISCID=7310eb19
DTITLE=Various Artist - Downhome Blues Classics, Chicago, Disc 3
DYEAR=2005
DGENRE=Blues
TTITLE0=John Brim - Tough Times
TTITLE1=Johnny Young - Let Me Ride Your Mule
TTITLE2=Lee Brown - New Little Girl, Litlte Girl
TTITLE3=Little Johnny Jones - Big Town Playboy
TTITLE4=Grace Brim - Leaving Daddy Blues
TTITLE5=Jimmy Reed - I Found My Baby
TTITLE6=Jimmy Rogers - Act Like You Love Me
TTITLE7=Johnny Shines - Joliet Blues
TTITLE8=Robert Lockwood - Dust My Broom
TTITLE9=Albert King - Bad Luck Blues
TTITLE10=Muddy Waters - Baby Please Don't Go
TTITLE11=J.B. Lenoir - My Baby Told Me
TTITLE12=Junior Wells - Lawdy Lawdy
TTITLE13=Johnny Young - My Baby Walked Out On Me
TTITLE14=Tampa Red - So Much Trouble
TTITLE15=Junior Wells - Hoodoo Man
TTITLE16=John Brim - Dark Clouds
TTITLE17=Little Walter - Don't Have To Hunt No More
TTITLE18=Snooky Pryor - I Want You For Myself
TTITLE19=Grace Brim - Going Down The Line
TTITLE20=Sunnyland Slim - It's All Over Now
TTITLE21=Essie Sykes - Easy Walkin' Papa
TTITLE22=John Brim - Lonesome Man Blues
TTITLE23=Big Boy Spires - Which One Do I Love
TTITLE24=Sunnyland Slim - Back To Korea
EXTD=YEAR: 2005
EXTT0=
EXTT1=
EXTT2=
EXTT3=
EXTT4=
EXTT5=
EXTT6=
EXTT7=
EXTT8=
EXTT9=
EXTT10=
EXTT11=
EXTT12=
EXTT13=
EXTT14=
EXTT15=
EXTT16=
EXTT17=
EXTT18=
EXTT19=
EXTT20=
EXTT21=
EXTT22=
EXTT23=
EXTT24=
PLAYORDER=
